<?xml version="1.0" encoding="utf-8"?>
<!-- Generator: Adobe Illustrator 16.0.0, SVG Export Plug-In . SVG Version: 6.00 Build 0)  -->
<!DOCTYPE svg PUBLIC "-//W3C//DTD SVG 1.1//EN" "http://www.w3.org/Graphics/SVG/1.1/DTD/svg11.dtd">
<svg version="1.1" xmlns="http://www.w3.org/2000/svg" xmlns:xlink="http://www.w3.org/1999/xlink" x="0px" y="0px"
	 width="38.552px" height="38.552px" viewBox="0 0 38.552 38.552" enable-background="new 0 0 38.552 38.552" xml:space="preserve">
<g id="Layer_1">
	<path fill="#67686B" d="M23.666,11.904h-1.137c0-1.164-1.49-2.148-3.254-2.148s-3.253,0.984-3.253,2.148h-1.138
		c0-1.812,1.97-3.285,4.391-3.285S23.666,10.093,23.666,11.904"/>
	<path fill="#67686B" d="M21.634,18.814l-0.197,0.46h-4.324l-0.197-0.46l-0.527-1.231h-6.59v8.49h18.953v-8.49h-6.589L21.634,18.814
		z M9.798,12.522v4.383h7.125l0.689,1.611h3.324l0.689-1.611h7.125v-4.383H9.798z"/>
	<polygon fill="#FFFFFF" points="17.93,16.895 18.291,17.803 20.259,17.803 20.62,16.895 	"/>
	<path fill="#67686B" d="M0,38.552h38.552V0H0V38.552z M37.532,37.532H1.018V1.02h36.515V37.532z"/>
</g>
<g id="Isolation_Mode">
</g>
</svg>
