<?xml version="1.0" encoding="utf-8"?>
<!-- Generator: Adobe Illustrator 16.0.0, SVG Export Plug-In . SVG Version: 6.00 Build 0)  -->
<!DOCTYPE svg PUBLIC "-//W3C//DTD SVG 1.1//EN" "http://www.w3.org/Graphics/SVG/1.1/DTD/svg11.dtd">
<svg version="1.1" id="Layer_1" xmlns="http://www.w3.org/2000/svg" xmlns:xlink="http://www.w3.org/1999/xlink" x="0px" y="0px"
	 width="38.553px" height="38.551px" viewBox="0 0 38.553 38.551" enable-background="new 0 0 38.553 38.551" xml:space="preserve">
<g id="Layer_1_1_">
	<path fill="#C465A7" d="M29.29,23.064h-1.137v-9.906c0-0.473-0.385-0.856-0.855-0.856H13.431c-0.473,0-0.855,0.384-0.855,0.856
		v9.803h-1.138v-9.803c0-1.1,0.895-1.993,1.993-1.993h13.866c1.101,0,1.992,0.894,1.992,1.993V23.064z"/>
	<path fill="#C465A7" d="M22.417,22.901v0.52h-4.078v-0.52H9.671c0.023,1.164,0.688,2.1,1.505,2.1h18.405
		c0.818,0,1.482-0.936,1.506-2.1H22.417z"/>
	<rect x="24.553" y="23.717" fill="#FFFFFF" width="1.648" height="0.429"/>
	<rect x="27.468" y="23.717" fill="#FFFFFF" width="1.648" height="0.429"/>
	<rect x="13.233" y="23.717" fill="#FFFFFF" width="1.647" height="0.429"/>
	<path fill="#C465A7" d="M0,38.551h38.551V0H0V38.551z M37.534,37.532H1.02V1.02h36.514V37.532z"/>
</g>
<g id="Isolation_Mode">
</g>
</svg>
