<?xml version="1.0" encoding="utf-8"?>
<!-- Generator: Adobe Illustrator 16.0.0, SVG Export Plug-In . SVG Version: 6.00 Build 0)  -->
<!DOCTYPE svg PUBLIC "-//W3C//DTD SVG 1.1//EN" "http://www.w3.org/Graphics/SVG/1.1/DTD/svg11.dtd">
<svg version="1.1" xmlns="http://www.w3.org/2000/svg" xmlns:xlink="http://www.w3.org/1999/xlink" x="0px" y="0px"
	 width="38.552px" height="38.552px" viewBox="0 0 38.552 38.552" enable-background="new 0 0 38.552 38.552" xml:space="preserve">
<g id="Layer_1">
	<path fill="#434D54" d="M14.754,18.082h4.05v-3.393h-3.509C14.977,15.702,14.783,16.855,14.754,18.082 M22.229,12.849
		c-0.741-1.256-1.696-2.024-2.705-2.17v3.291h3.252C22.613,13.565,22.431,13.189,22.229,12.849 M16.099,12.849
		c-0.202,0.341-0.385,0.717-0.547,1.121h3.252v-3.291C17.795,10.824,16.84,11.593,16.099,12.849 M15.324,22.196h3.48v-3.393h-4.048
		C14.792,20.032,14.996,21.186,15.324,22.196 M16.099,23.947c0.741,1.256,1.696,2.024,2.705,2.17v-3.2H15.59
		C15.743,23.286,15.913,23.632,16.099,23.947 M24.293,18.082h2.969c-0.047-1.219-0.363-2.369-0.891-3.393h-2.587
		C24.088,15.722,24.267,16.869,24.293,18.082 M23.758,22.196h2.567c0.543-1.021,0.875-2.171,0.936-3.393h-2.968
		C24.258,20.019,24.069,21.165,23.758,22.196 M22.85,12.482c0.265,0.451,0.499,0.95,0.697,1.487h2.405
		c-1.115-1.71-2.86-2.971-4.906-3.457C21.745,10.96,22.357,11.644,22.85,12.482 M14.036,18.804h-2.969
		c0.061,1.222,0.392,2.372,0.935,3.393h2.567C14.258,21.165,14.07,20.019,14.036,18.804 M22.85,24.313
		c-0.493,0.839-1.105,1.521-1.804,1.969c2.01-0.477,3.73-1.702,4.849-3.365h-2.382C23.322,23.419,23.1,23.888,22.85,24.313
		 M14.542,14.689h-2.587c-0.527,1.023-0.844,2.174-0.891,3.393h2.969C14.062,16.869,14.24,15.722,14.542,14.689 M15.478,24.313
		c-0.25-0.426-0.472-0.895-0.663-1.396h-2.382c1.119,1.663,2.839,2.889,4.849,3.365C16.583,25.835,15.971,25.152,15.478,24.313
		 M23.032,14.689h-3.508v3.393h4.049C23.545,16.855,23.351,15.702,23.032,14.689 M15.478,12.482
		c0.492-0.839,1.104-1.521,1.803-1.969c-2.045,0.485-3.789,1.747-4.906,3.456h2.406C14.979,13.433,15.212,12.934,15.478,12.482
		 M23.572,18.804h-4.048v3.393h3.48C23.332,21.186,23.535,20.032,23.572,18.804 M22.229,23.947c0.186-0.315,0.356-0.661,0.509-1.03
		h-3.214v3.2C20.533,25.972,21.488,25.203,22.229,23.947"/>
	<path fill="#434D54" d="M19.165,28.253c-5.436,0-9.855-4.421-9.855-9.854c0-5.436,4.42-9.856,9.855-9.856
		c5.434,0,9.854,4.421,9.854,9.856C29.019,23.832,24.598,28.253,19.165,28.253 M19.165,9.301c-5.017,0-9.099,4.08-9.099,9.098
		c0,5.016,4.082,9.097,9.099,9.097c5.016,0,9.096-4.081,9.096-9.097C28.261,13.381,24.18,9.301,19.165,9.301"/>
	<path fill="#67686B" d="M0,38.552h38.552V0H0V38.552z M37.532,37.532H1.02V1.02h36.512V37.532z"/>
</g>
<g id="Isolation_Mode">
</g>
</svg>
