<?xml version="1.0" encoding="utf-8"?>
<!-- Generator: Adobe Illustrator 16.0.0, SVG Export Plug-In . SVG Version: 6.00 Build 0)  -->
<!DOCTYPE svg PUBLIC "-//W3C//DTD SVG 1.1//EN" "http://www.w3.org/Graphics/SVG/1.1/DTD/svg11.dtd">
<svg version="1.1" id="Layer_1" xmlns="http://www.w3.org/2000/svg" xmlns:xlink="http://www.w3.org/1999/xlink" x="0px" y="0px"
	 width="38.553px" height="38.551px" viewBox="0 0 38.553 38.551" enable-background="new 0 0 38.553 38.551" xml:space="preserve">
<g id="Layer_1_1_">
</g>
<g id="Isolation_Mode">
	<path fill="#67686B" d="M0,38.551h38.553V0H0V38.551z M37.532,37.532H1.02V1.02h36.512V37.532z"/>
	<g>
		<path fill="#434D54" d="M13.28,22.161v1.991H6.868l0.002-1.666c1.899-3.106,3.028-5.029,3.387-5.767
			c0.357-0.738,0.537-1.314,0.537-1.728c0-0.317-0.055-0.555-0.163-0.711c-0.107-0.156-0.271-0.234-0.493-0.234
			c-0.223,0-0.388,0.087-0.495,0.26c-0.108,0.173-0.162,0.517-0.162,1.031v1.111H6.868v-0.426c0-0.654,0.033-1.17,0.102-1.548
			c0.066-0.377,0.232-0.748,0.497-1.114c0.266-0.365,0.608-0.642,1.031-0.829c0.423-0.188,0.932-0.281,1.522-0.281
			c1.158,0,2.035,0.287,2.629,0.861c0.594,0.575,0.891,1.303,0.891,2.183c0,0.668-0.167,1.375-0.501,2.12
			c-0.335,0.746-1.318,2.328-2.954,4.747H13.28L13.28,22.161z"/>
		<path fill="#434D54" d="M20.06,12.475v7.631h0.829v1.991H20.06v2.056h-2.914v-2.056h-3.462v-1.991l2.517-7.631H20.06z
			 M17.146,20.105v-4.97l-1.287,4.97H17.146z"/>
		<path fill="#434D54" d="M26.729,12.251l-3.456,12.125h-2.207l3.477-12.125H26.729z"/>
		<path fill="#434D54" d="M32.474,12.475v2.544l-1.861,9.134h-2.898l2.072-9.579h-2.881v-2.099H32.474z"/>
	</g>
</g>
</svg>
