<?xml version="1.0" encoding="utf-8"?>
<!-- Generator: Adobe Illustrator 16.0.0, SVG Export Plug-In . SVG Version: 6.00 Build 0)  -->
<!DOCTYPE svg PUBLIC "-//W3C//DTD SVG 1.1//EN" "http://www.w3.org/Graphics/SVG/1.1/DTD/svg11.dtd">
<svg version="1.1" id="Layer_1" xmlns="http://www.w3.org/2000/svg" xmlns:xlink="http://www.w3.org/1999/xlink" x="0px" y="0px"
	 width="38.553px" height="38.551px" viewBox="0 0 38.553 38.551" enable-background="new 0 0 38.553 38.551" xml:space="preserve">
<g id="Layer_1_1_">
	<path fill="#66686A" d="M19.36,28.811c2.808,0,3.856-0.36,3.856-0.36c-0.02-0.121-0.038-0.923-0.063-1.039
		c-0.248-1.205-0.894-2.127-3.218-2.269V24.35c0.8-0.371,1.376-1.377,1.376-2.387c0-1.271-0.912-2.063-2.036-2.063
		s-2.036,0.793-2.036,2.063c0,1.01,0.575,2.016,1.375,2.387v0.791c-2.37,0.146-2.99,1.094-3.229,2.326
		c-0.021,0.1-0.036,0.881-0.052,0.982C15.335,28.45,16.453,28.811,19.36,28.811"/>
	<path fill="#66686A" d="M13.736,18.397c2.808,0,3.855-0.358,3.855-0.358c-0.017-0.123-0.037-0.923-0.063-1.041
		c-0.248-1.204-0.894-2.126-3.218-2.269v-0.793c0.8-0.371,1.376-1.376,1.376-2.385c0-1.27-0.911-2.062-2.036-2.062
		c-1.124,0-2.035,0.792-2.035,2.062c0,1.009,0.574,2.014,1.375,2.385v0.793c-2.37,0.145-2.99,1.093-3.229,2.327
		c-0.021,0.1-0.036,0.88-0.052,0.983C9.711,18.039,10.829,18.397,13.736,18.397"/>
	<path fill="#66686A" d="M24.983,18.397c2.809,0,3.855-0.358,3.855-0.358c-0.02-0.123-0.038-0.923-0.063-1.041
		c-0.248-1.204-0.894-2.126-3.217-2.269v-0.793c0.801-0.371,1.375-1.376,1.375-2.385c0-1.27-0.91-2.062-2.035-2.062
		s-2.037,0.792-2.037,2.062c0,1.009,0.576,2.014,1.376,2.385v0.793c-2.372,0.145-2.99,1.093-3.229,2.326
		c-0.02,0.1-0.035,0.88-0.051,0.983C20.958,18.039,22.077,18.397,24.983,18.397"/>
	<polygon fill="#66686A" points="16.384,22.506 13.298,22.506 13.298,19.276 14.071,19.276 14.071,21.732 16.384,21.732 	"/>
	<polygon fill="#66686A" points="16.384,22.506 13.298,22.506 13.298,19.276 14.071,19.276 14.071,21.732 16.384,21.732 	"/>
	<polygon fill="#66686A" points="25.253,22.506 22.168,22.506 22.168,21.732 24.481,21.732 24.481,19.276 25.253,19.276 	"/>
	<polygon fill="#66686A" points="25.253,22.506 22.168,22.506 22.168,21.732 24.481,21.732 24.481,19.276 25.253,19.276 	"/>
	<path fill="#66686A" d="M0,38.551h38.553V0H0V38.551z M37.531,37.532H1.019V1.02h36.512V37.532z"/>
</g>
<g id="Isolation_Mode">
</g>
</svg>
