<?xml version="1.0" encoding="utf-8"?>
<!-- Generator: Adobe Illustrator 16.0.0, SVG Export Plug-In . SVG Version: 6.00 Build 0)  -->
<!DOCTYPE svg PUBLIC "-//W3C//DTD SVG 1.1//EN" "http://www.w3.org/Graphics/SVG/1.1/DTD/svg11.dtd">
<svg version="1.1" id="Layer_1" xmlns="http://www.w3.org/2000/svg" xmlns:xlink="http://www.w3.org/1999/xlink" x="0px" y="0px"
	 width="38.553px" height="38.551px" viewBox="0 0 38.553 38.551" enable-background="new 0 0 38.553 38.551" xml:space="preserve">
<g id="Layer_1_1_">
	<path fill="#C465A7" d="M15.159,13.036c1.375-1.063,3.146-1.603,5.008-1.367c1.862,0.237,3.442,1.2,4.511,2.574
		c0.688,0.891,1.153,1.947,1.336,3.085l1.957-0.018c-0.037-0.29,0.103-0.563,0.038-0.846c-0.793-3.564-3.743-6.416-7.573-6.902
		c-4.881-0.618-9.336,2.835-9.957,7.715c-0.002,0.022-0.004,0.046-0.006,0.069l2.144-0.003
		C12.894,15.57,13.835,14.064,15.159,13.036 M28.156,19.449l-2.144,0.003c-0.278,1.773-1.22,3.28-2.546,4.306
		c-1.375,1.066-3.146,1.604-5.008,1.367c-1.86-0.234-3.44-1.199-4.508-2.574c-0.688-0.889-1.154-1.944-1.337-3.083l-1.771,0.204
		c0.026,0.232-0.308,0.262-0.262,0.489c0.735,3.645,3.719,6.578,7.61,7.072c4.88,0.618,9.337-2.835,9.956-7.715
		C28.152,19.495,28.153,19.473,28.156,19.449"/>
	<polygon fill="#C465A7" points="28.937,14.198 27.697,18.552 23.845,16.177 	"/>
	<polygon fill="#C465A7" points="9.616,22.728 10.854,18.373 14.708,20.749 	"/>
	<path fill="#C465A7" d="M0,38.551h38.553V0H0V38.551z M37.533,37.532H1.019V1.02h36.515L37.533,37.532L37.533,37.532z"/>
</g>
<g id="Isolation_Mode">
</g>
</svg>
