<?xml version="1.0" encoding="utf-8"?>
<!-- Generator: Adobe Illustrator 16.0.0, SVG Export Plug-In . SVG Version: 6.00 Build 0)  -->
<!DOCTYPE svg PUBLIC "-//W3C//DTD SVG 1.1//EN" "http://www.w3.org/Graphics/SVG/1.1/DTD/svg11.dtd">
<svg version="1.1" id="Layer_1" xmlns="http://www.w3.org/2000/svg" xmlns:xlink="http://www.w3.org/1999/xlink" x="0px" y="0px"
	 width="38.553px" height="38.551px" viewBox="0 0 38.553 38.551" enable-background="new 0 0 38.553 38.551" xml:space="preserve">
<g id="Layer_1_1_">
	<path fill="#C465A7" d="M23.666,11.904h-1.137c0-1.164-1.49-2.148-3.254-2.148s-3.253,0.984-3.253,2.148h-1.139
		c0-1.812,1.971-3.285,4.392-3.285S23.666,10.093,23.666,11.904"/>
	<path fill="#C465A7" d="M21.634,18.814l-0.196,0.46h-4.324l-0.197-0.46l-0.526-1.231H9.799v8.49h18.953v-8.49h-6.589L21.634,18.814
		z M9.798,12.522v4.383h7.125l0.689,1.611h3.324l0.688-1.611h7.125v-4.383H9.798z"/>
	<polygon fill="#FFFFFF" points="17.93,16.895 18.291,17.803 20.259,17.803 20.62,16.895 	"/>
	<path fill="#C465A7" d="M0,38.551h38.553V0H0V38.551z M37.532,37.532H1.018V1.02h36.515L37.532,37.532L37.532,37.532z"/>
</g>
<g id="Isolation_Mode">
</g>
</svg>
