<?xml version="1.0" encoding="utf-8"?>
<!-- Generator: Adobe Illustrator 16.0.0, SVG Export Plug-In . SVG Version: 6.00 Build 0)  -->
<!DOCTYPE svg PUBLIC "-//W3C//DTD SVG 1.1//EN" "http://www.w3.org/Graphics/SVG/1.1/DTD/svg11.dtd">
<svg version="1.1" xmlns="http://www.w3.org/2000/svg" xmlns:xlink="http://www.w3.org/1999/xlink" x="0px" y="0px"
	 width="38.552px" height="38.552px" viewBox="0 0 38.552 38.552" enable-background="new 0 0 38.552 38.552" xml:space="preserve">
<g id="Layer_1">
	<path fill="#67686B" d="M29.29,23.064h-1.137v-9.906c0-0.473-0.385-0.856-0.855-0.856H13.431c-0.472,0-0.855,0.384-0.855,0.856
		v9.803h-1.138v-9.803c0-1.1,0.895-1.993,1.993-1.993h13.867c1.1,0,1.992,0.894,1.992,1.993V23.064z"/>
	<path fill="#67686B" d="M22.417,22.901v0.519h-4.078v-0.519H9.671C9.694,24.065,10.359,25,11.176,25h18.405
		c0.818,0,1.482-0.935,1.506-2.099H22.417z"/>
	<rect x="24.553" y="23.717" fill="#FFFFFF" width="1.649" height="0.429"/>
	<rect x="27.468" y="23.717" fill="#FFFFFF" width="1.648" height="0.429"/>
	<rect x="13.233" y="23.717" fill="#FFFFFF" width="1.648" height="0.429"/>
	<path fill="#67686B" d="M0,38.552h38.551V0H0V38.552z M37.534,37.532H1.02V1.02h36.514V37.532z"/>
</g>
<g id="Isolation_Mode">
</g>
</svg>
