<?xml version="1.0" encoding="utf-8"?>
<!-- Generator: Adobe Illustrator 16.0.0, SVG Export Plug-In . SVG Version: 6.00 Build 0)  -->
<!DOCTYPE svg PUBLIC "-//W3C//DTD SVG 1.1//EN" "http://www.w3.org/Graphics/SVG/1.1/DTD/svg11.dtd">
<svg version="1.1" xmlns="http://www.w3.org/2000/svg" xmlns:xlink="http://www.w3.org/1999/xlink" x="0px" y="0px" width="64.75px"
	 height="53.938px" viewBox="0 0 64.75 53.938" enable-background="new 0 0 64.75 53.938" xml:space="preserve">
<g id="Layer_1">
</g>
<g id="Isolation_Mode">
	<path fill="#DDDFE0" d="M64.57,17.508L53.568,5.384c0.117-0.145,0.189-0.324,0.189-0.529c0-0.465-0.375-0.842-0.84-0.842
		c-0.334,0-0.621,0.196-0.758,0.476L37.703,0.546L36.811,2.92c-0.098-0.038-0.205-0.062-0.316-0.062
		c-0.314,0-0.584,0.172-0.729,0.426l-4.947-2.322c0.006-0.039,0.012-0.078,0.012-0.12C30.83,0.376,30.453,0,29.988,0
		c-0.467,0-0.844,0.376-0.844,0.842c0,0.042,0.006,0.081,0.012,0.12l-1.207,0.604c-0.146-0.236-0.408-0.394-0.711-0.394
		c-0.441,0-0.797,0.342-0.834,0.775h-5.83c-0.035-0.434-0.395-0.775-0.836-0.775c-0.465,0-0.844,0.376-0.844,0.845
		c0,0.261,0.121,0.489,0.309,0.646l-0.479,0.676c-0.07-0.017-0.141-0.03-0.217-0.03c-0.465,0-0.842,0.378-0.842,0.843
		c0,0.004,0,0.009,0.002,0.013L13.463,5.77c-0.152-0.206-0.398-0.341-0.674-0.341c-0.465,0-0.842,0.377-0.842,0.845
		c0,0.238,0.1,0.454,0.264,0.607l-0.914,1.725c-0.068-0.019-0.139-0.03-0.211-0.03c-0.453,0-0.82,0.36-0.84,0.813h-1.68
		C8.473,9.023,8.145,8.752,7.752,8.752c-0.467,0-0.842,0.377-0.842,0.843c0,0.217,0.082,0.413,0.215,0.561l-1.791,3.203
		c-0.053-0.011-0.109-0.017-0.162-0.017c-0.469,0-0.846,0.378-0.846,0.843c0,0.222,0.088,0.421,0.227,0.571l-2.994,5.353
		c-0.068-0.021-0.141-0.034-0.219-0.034c-0.465,0-0.842,0.379-0.842,0.843c0,0.443,0.342,0.803,0.775,0.836l2.941,7.962
		c-0.256,0.143-0.432,0.416-0.432,0.73c0,0.467,0.377,0.843,0.842,0.843c0.443,0,0.803-0.343,0.838-0.776l12.115,3.414
		c-0.006,0.041-0.01,0.082-0.01,0.124c0,0.466,0.373,0.845,0.842,0.845c0.072,0,0.141-0.014,0.209-0.029l2.035,4.744l8.352,2.389
		l7.52-4.628l1.527,6.103l3.975,4.563L52,53.938l-3.387-8.088c0.109-0.096,0.189-0.218,0.234-0.358l6.977,1.789l4.627-2.414
		l0.033-0.521l0.129,0.038l-0.119-0.211l0.354-5.486l-1.438-4.142l3.967,2.457L64.57,17.508z M29.988,1.685
		c0.318,0,0.594-0.181,0.736-0.44l4.939,2.318c-0.008,0.044-0.016,0.091-0.016,0.138c0,0.332,0.195,0.614,0.471,0.754L25.674,23.475
		l0.65-6.925h0.004c0.455,0,0.822-0.368,0.822-0.822c0-0.353-0.225-0.652-0.539-0.769l3.27-13.284
		C29.914,1.679,29.951,1.685,29.988,1.685 M13.992,16.922l11.563-0.926c0.078,0.229,0.256,0.411,0.48,0.498l-0.65,6.907
		c-0.02,0-0.037-0.005-0.055-0.005c-0.203,0-0.389,0.078-0.531,0.201l-10.824-6.556C13.982,17.003,13.99,16.962,13.992,16.922
		 M13.965,16.621c-0.049-0.177-0.156-0.33-0.299-0.436L16.34,9.76c0.057,0.012,0.117,0.02,0.18,0.02c0.236,0,0.451-0.102,0.605-0.26
		l8.41,6.004c-0.016,0.055-0.025,0.113-0.027,0.175L13.965,16.621z M27.357,2.846c0.408-0.057,0.727-0.406,0.727-0.829
		c0-0.063-0.008-0.122-0.021-0.181l1.188-0.592c0.082,0.146,0.199,0.265,0.348,0.343L26.33,14.878L27.357,2.846z M20.547,2.24h5.885
		c0.084,0.298,0.32,0.526,0.623,0.596L26.02,14.967c-0.008,0.004-0.016,0.006-0.023,0.01L20.229,2.698
		C20.381,2.587,20.494,2.428,20.547,2.24 M18.508,4.995c0.467,0,0.846-0.378,0.846-0.845c0-0.283-0.145-0.531-0.361-0.687
		l0.467-0.657c0.088,0.03,0.18,0.052,0.279,0.052c0.078,0,0.15-0.015,0.225-0.035l5.787,12.32c-0.033,0.032-0.063,0.069-0.09,0.108
		l-8.371-5.976c0.045-0.105,0.072-0.219,0.072-0.341c0-0.297-0.156-0.555-0.387-0.705l1.355-3.258
		C18.387,4.986,18.447,4.995,18.508,4.995 M13.594,6.034l4.131-1.578c0.064,0.165,0.18,0.306,0.326,0.401l-1.356,3.255
		c-0.058-0.013-0.116-0.02-0.175-0.02c-0.223,0-0.422,0.088-0.572,0.227l-2.389-1.705c0.047-0.104,0.072-0.221,0.072-0.341
		C13.631,6.189,13.615,6.11,13.594,6.034 M11.564,8.726l0.891-1.681c0.102,0.044,0.215,0.07,0.334,0.07
		c0.238,0,0.451-0.099,0.605-0.259l2.375,1.697c-0.059,0.113-0.096,0.243-0.096,0.382c0,0.297,0.156,0.559,0.385,0.708l-2.666,6.411
		c-0.07-0.021-0.139-0.034-0.215-0.034c-0.025,0-0.049,0.006-0.074,0.007l-1.648-5.854c0.279-0.137,0.475-0.421,0.475-0.753
		C11.93,9.132,11.787,8.878,11.564,8.726 M7.361,10.338c0.117,0.062,0.248,0.101,0.391,0.101c0.436,0,0.789-0.332,0.834-0.759h1.703
		c0.109,0.338,0.424,0.582,0.797,0.582c0.025,0,0.053-0.006,0.078-0.009l1.648,5.856c-0.148,0.073-0.27,0.191-0.352,0.337L6,14.302
		c0.008-0.037,0.014-0.075,0.014-0.117c0-0.301-0.164-0.567-0.404-0.715L7.361,10.338z M4.791,14.935
		c0.113,0.061,0.242,0.094,0.381,0.094c0.316,0,0.59-0.178,0.734-0.438l6.33,2.101L2.107,20.573
		c-0.061-0.139-0.158-0.254-0.279-0.342L4.791,14.935z M4.949,29.668c-0.098-0.043-0.207-0.066-0.324-0.066
		c-0.045,0-0.09,0.007-0.133,0.015l-2.918-7.892c0.352-0.103,0.607-0.423,0.607-0.808c0-0.018-0.002-0.036-0.002-0.058l10.188-3.903
		c0.035,0.265,0.195,0.485,0.422,0.608L4.949,29.668z M5.385,30.084c-0.047-0.097-0.105-0.18-0.182-0.251l7.887-12.177
		c0.01,0.001,0.016,0.003,0.023,0.003l2.826,8.978c-0.164,0.15-0.268,0.364-0.268,0.605c0,0.021,0.004,0.042,0.004,0.064
		L5.385,30.084z M17.674,33.646L5.77,30.293l9.984-2.696c0.119,0.244,0.352,0.419,0.631,0.456l1.65,5.245
		C17.883,33.376,17.758,33.496,17.674,33.646 M18.887,34.745c0.221-0.153,0.365-0.407,0.365-0.695c0-0.465-0.377-0.843-0.842-0.843
		c-0.033,0-0.063,0.006-0.094,0.011l-1.631-5.18c0.363-0.088,0.629-0.41,0.629-0.796c0-0.455-0.367-0.823-0.822-0.823
		c-0.104,0-0.203,0.023-0.298,0.058l-2.78-8.849c0.178-0.054,0.332-0.165,0.438-0.315l10.76,6.516
		c-0.064,0.117-0.104,0.249-0.104,0.391c0,0.358,0.229,0.657,0.547,0.771l-4.316,14.073L18.887,34.745z M20.943,39.389l4.402-14.35
		c0.047,0,0.094-0.005,0.135-0.013l3.313,16.604L20.943,39.389z M29.086,41.603L25.76,24.918c0.033-0.021,0.061-0.042,0.092-0.067
		l10.545,12.253L29.086,41.603z M36.475,14.122c-0.252,0.141-0.42,0.406-0.42,0.712c0,0.305,0.168,0.568,0.42,0.71v8.929
		c-0.457,0-0.826,0.368-0.826,0.822c0,0.453,0.369,0.821,0.826,0.821v10.628L26.043,24.623c0.068-0.121,0.111-0.254,0.111-0.404
		c0-0.224-0.092-0.428-0.238-0.576L36.41,4.536c0.02,0.001,0.041,0.006,0.064,0.006V14.122z M63.957,22.72l-13.563,1.677
		c-0.139-0.108-0.313-0.178-0.502-0.178c-0.203,0-0.387,0.077-0.529,0.198l-11.836-9.085c0.059-0.077,0.105-0.166,0.135-0.262
		l16.258,1.603c0.064,0.391,0.402,0.687,0.811,0.687c0.35,0,0.65-0.222,0.766-0.531l8.77,0.865L63.957,22.72z M57.064,39.171
		c0.096,0,0.189-0.02,0.275-0.051l2.666,4.778L36.9,37.068L49.088,25.21c0.076,0.373,0.408,0.653,0.805,0.653
		c0.018,0,0.031-0.005,0.049-0.005l6.611,11.851c-0.189,0.15-0.313,0.379-0.313,0.64C56.24,38.805,56.609,39.171,57.064,39.171
		 M52.26,5.382c0.156,0.192,0.391,0.317,0.658,0.317c0.158,0,0.301-0.047,0.428-0.121l10.711,11.8l-8.506-0.838v-0.001
		c0-0.456-0.367-0.824-0.82-0.824c-0.398,0-0.732,0.286-0.809,0.662l-16.228-1.598c-0.009-0.138-0.052-0.266-0.118-0.377
		L52.26,5.382z M36.768,4.495c0.33-0.113,0.568-0.426,0.568-0.795c0-0.244-0.105-0.463-0.273-0.615l0.822-2.186L52.08,4.772
		c-0.002,0.028-0.006,0.057-0.006,0.082c0,0.095,0.016,0.184,0.047,0.269l-14.746,9.059c-0.139-0.106-0.311-0.17-0.498-0.17
		c-0.037,0-0.074,0.006-0.109,0.01V4.495z M36.768,26.06c0.307-0.117,0.527-0.416,0.527-0.765c0-0.351-0.221-0.648-0.527-0.767
		v-8.884c0.035,0.004,0.072,0.01,0.109,0.01c0.158,0,0.305-0.046,0.43-0.121l11.871,9.109c-0.023,0.041-0.041,0.084-0.059,0.126
		L36.768,36.79V26.06z M36.855,37.482l3.324,2.31c-0.018,0.063-0.027,0.132-0.027,0.202c0,0.192,0.07,0.369,0.182,0.511
		l-2.078,2.576L36.855,37.482z M38.377,43.399l2.178-2.7c0.125,0.071,0.265,0.116,0.42,0.116c0.174,0,0.334-0.055,0.467-0.147
		l5.904,4.102c-0.086,0.134-0.137,0.29-0.137,0.457c0,0.07,0.01,0.137,0.027,0.201l-5.096,2.302L38.377,43.399z M51.389,53.232
		l-8.971-5.309l4.934-2.229c0.152,0.226,0.41,0.375,0.701,0.375c0.109,0,0.215-0.022,0.313-0.062L51.389,53.232z M60.166,44.684
		l-4.379,2.284l-6.895-1.766c-0.016-0.455-0.385-0.818-0.84-0.818c-0.191,0-0.363,0.064-0.504,0.171l-5.896-4.097
		c0.09-0.131,0.145-0.292,0.145-0.464c0-0.453-0.369-0.823-0.822-0.823c-0.28,0-0.521,0.139-0.67,0.35l-2.852-1.981l22.742,6.722
		L60.166,44.684z M60.553,38.725l-0.322,4.975l-2.637-4.728c0.178-0.15,0.291-0.37,0.291-0.623c0-0.453-0.367-0.822-0.82-0.822
		c-0.092,0-0.172,0.018-0.254,0.043l-6.574-11.783c0.035-0.016,0.066-0.034,0.102-0.054l8.582,8.301L60.553,38.725z M63.113,36.492
		l-3.41-2.109l-8.313-8.039l11.791,9.05L63.113,36.492z M50.633,25.391c0.051-0.104,0.082-0.224,0.082-0.35
		c0-0.138-0.037-0.263-0.096-0.376l13.322-1.647l-0.736,12.021L50.633,25.391z"/>
</g>
</svg>
