<?xml version="1.0" encoding="utf-8"?>
<!-- Generator: Adobe Illustrator 16.0.0, SVG Export Plug-In . SVG Version: 6.00 Build 0)  -->
<!DOCTYPE svg PUBLIC "-//W3C//DTD SVG 1.1//EN" "http://www.w3.org/Graphics/SVG/1.1/DTD/svg11.dtd">
<svg version="1.1" id="Layer_1" xmlns="http://www.w3.org/2000/svg" xmlns:xlink="http://www.w3.org/1999/xlink" x="0px" y="0px"
	 width="594.504px" height="53.515px" viewBox="0 0 594.504 53.515" enable-background="new 0 0 594.504 53.515"
	 xml:space="preserve">
<g id="Layer_1_1_">
</g>
<g id="Isolation_Mode">
	<g>
		<g>
			<polygon fill="#231F20" points="201.331,49.574 201.331,48.862 199.76,48.862 199.76,46.898 198.976,46.898 198.976,46.31 
				197.601,46.31 197.601,46.898 196.75,46.898 196.75,47.749 195.372,47.749 195.372,45.742 194.786,45.742 194.786,45.132 
				193.281,45.132 193.281,45.742 193.083,45.742 193.083,41.99 187.915,41.99 186.581,42.906 186.581,45.06 185.499,45.06 
				185.499,40.657 184.708,40.657 184.708,39.961 184.25,39.961 184.25,38.324 184.054,38.324 184.054,39.961 183.595,39.961 
				183.595,41.073 183.071,41.073 183.071,42.574 181.992,42.574 181.992,33.548 181.086,33.548 180.813,34.114 180.813,34.489 
				176.822,34.489 176.822,33.548 175.917,33.548 175.644,34.114 175.644,39.896 173.516,39.896 173.516,40.824 173.059,40.824 
				173.059,37.736 170.963,36.95 170.047,37.736 170.047,45.852 169.49,45.852 169.49,42.491 167.365,42.491 167.365,41.924 
				166.906,41.924 166.906,41.4 166.514,41.4 166.514,39.568 166.448,39.568 166.448,41.4 166.252,41.4 166.252,41.924 
				165.828,41.924 165.828,38.406 164.243,38.406 164.243,29.405 163.078,29.405 163.078,27.905 159.969,27.905 159.326,28.312 
				159.326,29.405 156.631,29.405 155.492,30.013 155.492,38.907 153.326,38.907 153.326,36.406 152.925,36.406 152.925,34.823 
				152.271,34.823 152.271,34.355 152.363,34.355 152.363,33.419 152.055,33.419 152.055,32.95 151.78,32.95 151.78,29.721 
				151.446,29.721 151.446,32.95 151.146,32.95 151.146,33.419 150.864,33.419 150.864,34.355 150.958,34.355 150.958,34.823 
				150.45,34.823 150.45,36.406 150.074,36.406 150.074,37.406 149.658,37.406 149.658,38.907 145.899,38.907 144.99,39.508 
				144.99,41.662 144.119,41.662 144.119,42.056 143.346,42.056 143.346,45.721 143.084,45.721 143.084,46.826 142.887,46.826 
				142.887,44.084 141.448,44.084 141.448,40.747 138.961,40.747 138.961,39.896 135.95,39.896 135.95,40.747 134.845,40.747 
				134.053,41.476 134.053,45.132 133.987,45.132 133.987,42.645 131.304,42.645 131.304,45.132 131.003,45.132 131.003,41.382 
				129.732,41.382 129.732,40.812 129.203,40.812 129.203,37.966 128.625,37.966 128.625,33.646 128.096,33.646 128.096,26.479 
				124.367,26.479 124.367,33.646 123.976,33.646 123.976,34.529 123.802,34.529 123.549,32.893 122.861,32.893 122.521,34.529 
				122.239,34.529 122.239,37.278 121.749,37.278 121.749,40.682 121.225,40.682 121.225,46.041 120.506,46.041 120.506,38.456 
				119.196,38.456 119.196,35.511 116.381,35.511 116.381,40.419 115.924,40.419 115.924,36.95 113.333,36.95 112.259,38 
				112.259,40.419 111.866,40.419 111.866,43.037 111.016,43.037 111.016,31.322 109.997,31.322 109.997,30.079 107.714,30.079 
				107.714,31.322 106.761,31.322 106.761,36.886 105.648,36.886 105.648,35.903 104.144,35.903 104.144,34.464 103.358,34.464 
				103.358,35.903 102.703,35.903 102.703,34.921 101.919,34.921 101.919,35.903 101.657,35.903 101.657,34.66 100.74,33.089 
				99.104,33.089 99.104,32.762 94.85,32.762 94.85,33.089 94.064,33.089 94.064,33.613 92.167,33.613 92.167,35.054 91.643,35.054 
				91.643,34.005 90.858,34.005 90.858,29.293 89.156,27.723 85.884,27.723 85.884,35.054 84.379,35.054 84.379,36.296 
				82.874,36.296 82.874,40.747 82.416,40.747 82.416,40.223 81.827,40.223 81.827,40.747 81.695,40.747 81.695,41.532 
				81.565,41.532 81.565,34.464 80.844,33.352 80.452,33.352 80.452,26.938 80.06,26.938 80.06,25.367 79.577,25.367 79.577,24.516 
				79.397,24.516 79.397,23.968 79.208,23.968 79.208,21.112 79.013,21.112 79.013,23.968 78.827,23.968 78.827,24.516 
				78.513,24.516 78.513,25.367 78.096,25.367 78.096,26.938 77.769,26.938 77.769,33.352 75.74,33.352 75.74,34.464 74.497,34.464 
				74.497,29.231 73.323,28.49 73.323,27.764 72.795,27.764 72.795,26.872 69.98,26.152 68.606,26.872 68.606,28.312 68.469,28.312 
				67.429,29.231 67.429,39.11 67.297,39.11 67.297,37.736 67.101,37.736 67.101,36.82 66.381,36.82 66.381,34.594 65.465,34.594 
				65.465,29.556 65.224,29.556 65.224,28.77 64.75,28.77 64.75,28.44 64.463,28.44 64.463,27.924 64.299,27.924 64.299,26.68 
				63.972,26.68 63.972,28.44 63.665,28.44 63.665,28.77 63.294,28.77 63.294,29.556 63.043,29.556 63.043,33.154 61.342,33.154 
				61.342,33.81 60.949,33.81 60.949,34.464 60.557,34.464 60.557,35.355 60.033,35.355 60.033,36.82 59.575,36.82 59.575,37.736 
				58.986,37.736 58.986,39.11 58.593,39.11 58.593,40.092 58.266,40.092 58.266,42.508 58.089,42.508 58.089,41.525 57.939,41.525 
				57.939,37.585 55.352,36.754 48.744,36.754 48.744,34.464 48.286,34.464 48.286,32.468 47.762,32.468 47.762,30.242 
				47.206,30.242 47.206,28.9 46.088,28.32 43.662,28.32 42.33,28.9 42.33,30.242 41.773,30.242 41.773,32.468 41.152,32.468 
				41.152,34.464 40.857,34.464 40.857,27.264 35.164,26.848 35.164,25.988 33.266,25.687 33.266,25.138 30.484,25.138 
				30.484,25.722 29.404,25.988 29.404,26.708 26.066,27.264 26.066,31.72 24.54,31.477 24.54,30.605 22.918,30.331 22.244,30.605 
				22.244,31.111 21.444,30.984 19.09,31.832 19.09,41.004 16.751,41.004 16.751,41.555 15.207,41.555 15.207,43.396 14.834,43.396 
				14.834,45.733 13.428,45.733 13.428,49.179 13.001,49.179 13.001,48.442 13.222,48.442 13.222,47.671 13.001,47.671 
				13.001,47.511 9.251,47.511 9.251,47.671 9.031,47.671 9.031,48.157 8.009,48.157 8.009,48.3 6.156,48.3 6.156,46.874 
				5.158,46.874 5.158,48.53 3.594,48.53 3.594,47.605 3.075,47.605 3.075,45.967 0.869,45.967 0.869,47.235 -1.032,47.235 
				-1.032,47.605 -1.587,47.605 -1.587,48.53 -2.646,48.53 -2.646,50.563 201.978,50.563 201.978,49.574 			"/>
			<polygon fill="#231F20" points="594.647,51.536 594.647,48.785 591.499,48.785 591.499,48.213 590.067,48.213 590.067,40.438 
				588.602,40.438 588.602,39.902 584.625,39.902 584.625,40.438 583.723,40.438 583.723,41.01 582.864,41.01 582.864,42.107 
				580.717,42.107 580.717,42.919 580.336,42.919 580.336,49.405 579.977,49.405 579.977,38.425 579.407,38.425 579.407,37.519 
				574.301,37.519 574.301,38.425 573.825,38.425 573.825,46.591 573.325,46.591 573.325,47.068 573.182,47.068 573.182,47.974 
				572.801,47.974 572.801,47.354 572.317,47.354 572.221,42.202 572.108,42.204 572.108,41.623 571.629,41.623 571.629,40.669 
				569.583,40.669 569.583,41.623 568.68,41.623 568.68,35.874 567.663,35.874 567.663,35.195 559.25,35.195 557.86,19.542 
				557.034,19.542 556.043,35.443 555.344,35.443 555.344,39.525 554.917,39.525 554.917,38.847 554.51,38.847 554.51,38.508 
				553.899,38.508 553.899,38.847 553.358,38.847 553.358,39.525 552.473,39.525 552.473,46.168 551.858,46.168 551.858,31.981 
				549.93,31.5 549.93,30.656 547.92,30.153 547.92,21.257 546.565,19.899 545.208,19.899 545.208,16.981 543.305,14.877 
				542.491,14.877 542.491,11.822 542.219,11.822 542.219,14.877 540.795,14.877 540.795,14.894 540.594,14.894 540.594,17.062 
				540.795,17.062 540.795,18.388 539.569,18.388 539.569,20.074 539.573,20.074 539.573,20.308 538.487,20.308 538.487,37.232 
				538.069,37.232 538.069,36.553 536.833,36.553 536.833,34.239 536.528,34.239 536.528,36.553 535.965,36.553 535.965,37.232 
				535.555,37.232 535.555,37.706 534.948,37.706 534.948,38.046 534.608,38.046 534.608,38.697 533.053,38.697 533.053,40.219 
				532.708,40.219 532.708,41.372 531.995,41.372 531.995,38.938 532.45,38.938 532.45,38.095 531.69,38.095 531.69,29.494 
				530.399,28 526.598,28 526.598,25.693 524.969,24.879 522.811,24.879 522.811,24.117 522.208,24.117 522.208,26.305 
				520.963,26.305 520.963,28 518.928,28 518.928,34.842 518.522,34.842 518.522,29.087 518.422,29.087 518.422,22.331 
				517.879,22.331 517.879,21.924 517.471,21.924 517.471,21.652 517.067,21.652 517.067,17.647 516.59,17.647 516.59,21.652 
				516.182,21.652 516.182,21.924 515.708,21.924 515.708,22.331 513.807,22.331 513.807,28.938 512.69,28.938 512.69,37.251 
				512.329,37.251 512.329,45.324 512.073,45.324 512.073,31.938 511.245,31.938 511.245,30.624 511,30.624 511,26.045 
				510.715,26.045 510.715,23.86 508.711,23.86 508.711,23.273 507.506,23.273 507.506,22.912 504.495,22.912 504.495,23.273 
				503.29,23.273 503.29,23.86 501.485,23.86 501.485,26.045 501.122,26.045 501.122,30.624 500.758,30.624 500.758,36.146 
				500.262,36.146 500.262,41.101 499.924,41.101 499.924,37.707 499.042,37.707 499.042,30.744 499.313,30.744 499.313,30.021 
				499.042,29.799 499.042,29.766 499,29.766 497.989,28.938 493.612,28.938 493.612,14.466 490.516,14.466 490.516,13.996 
				485.094,13.996 485.094,14.466 482.325,14.466 479.833,15.441 479.833,24.479 476.782,24.479 476.782,25.011 474.877,25.011 
				474.877,41.372 474.334,41.372 474.334,28.408 471.62,28.408 471.62,27.729 470.194,27.729 470.194,20.142 469.856,20.142 
				469.856,27.729 468.499,27.729 468.499,28.408 468.307,28.408 468.307,25.424 468.147,25.424 467.424,24.202 465.333,24.202 
				465.333,23.757 462.682,23.757 462.682,24.202 460.434,24.202 459.823,25.424 459.754,25.424 459.754,34.239 459.069,34.239 
				459.069,35.264 458.18,35.264 458.18,30.58 455.805,28.611 455.465,29.158 455.465,26.603 455.694,26.603 455.694,25.277 
				455.465,25.277 455.465,24.6 455.694,24.6 455.694,23.274 455.465,23.274 455.465,22.774 453.631,22.774 453.631,22.311 
				453.766,22.311 453.766,21.467 448.946,21.467 448.946,22.311 449.29,22.311 449.29,22.774 447.387,22.774 447.387,23.274 
				447.018,23.274 447.018,24.6 447.387,24.6 447.387,25.277 447.018,25.277 447.018,26.603 447.387,26.603 447.387,30.31 
				446.506,30.31 446.506,33.974 445.961,33.974 445.961,33.228 443.86,33.228 443.86,33.974 443.383,33.974 443.383,38.386 
				441.823,38.386 441.823,38.997 441.448,38.997 441.448,35.973 440.967,35.973 440.967,35.252 440.51,34.776 440.51,33.379 
				440.368,33.379 440.368,34.771 439.909,35.252 439.909,35.973 439.5,35.973 439.5,38.508 438.905,37.979 438.493,37.979 
				438.493,37.558 436.333,37.558 436.333,37.979 435.239,37.979 434.219,38.997 434.219,39.472 433.678,39.472 433.678,43.544 
				433.305,43.544 433.305,37.629 433.067,37.629 433.067,35.738 431.542,35.738 430.827,33.771 430.827,32.345 430.418,32.345 
				430.418,33.719 426.958,33.279 426.958,31.259 426.549,31.259 426.549,33.228 426.028,34.1 425.668,34.1 425.668,34.676 
				425.381,34.676 425.381,35.177 425.043,35.738 424.108,35.738 424.108,37.629 423.795,37.629 423.795,43.544 423.225,43.544 
				423.225,46.995 422.573,46.995 422.348,47.413 422.276,47.413 422.276,47.552 421.995,48.076 422.276,48.076 422.276,50.01 
				421.426,50.01 421.426,46.636 421.995,46.636 421.995,46.059 421.346,45.122 420.454,45.122 420.454,38.134 418.609,36.792 
				416.777,36.792 416.777,36.077 415.284,36.077 415.284,34.721 408.224,34.721 408.224,36.077 406.188,36.077 406.188,36.792 
				404.083,36.792 404.083,45.857 403.606,45.857 403.606,48.023 402.933,48.023 402.933,45.429 403.161,45.429 403.161,44.103 
				402.933,44.103 402.933,43.426 403.161,43.426 403.161,42.1 402.933,42.1 402.933,41.6 401.1,41.6 401.1,40.514 396.756,40.514 
				396.756,41.6 394.856,41.6 394.856,42.1 394.486,42.1 394.486,43.426 394.856,43.426 394.856,44.103 394.486,44.103 
				394.486,45.429 394.856,45.429 394.856,48.847 394.563,48.847 394.563,46.304 394.144,46.304 394.144,45.641 390.413,45.641 
				390.413,46.304 390.063,46.304 390.063,51.536 			"/>
			<polygon fill="#231F20" points="388.072,49.57 388.072,44.582 383.799,44.582 383.799,48.178 382.946,48.178 382.946,33.233 
				381.418,32.562 377.881,32.562 376.417,33.233 376.417,42.324 374.769,42.324 374.769,44.572 374.584,44.572 374.584,40.616 
				374.161,40.616 374.161,40.25 371.717,40.25 371.717,40.616 371.413,40.616 371.413,45.556 371.292,45.556 371.292,37.382 
				371.108,37.382 371.108,37.078 369.887,37.078 369.887,36.649 368.135,36.649 368.135,34.837 367.954,34.837 367.954,36.649 
				367.327,36.649 367.327,37.078 366.471,37.078 366.471,37.442 365.92,37.442 365.92,39.213 364.51,39.213 364.51,30.426 
				363.715,30.426 363.715,30.296 360.506,30.296 360.506,30.426 360.118,30.426 360.118,40.094 359.515,40.094 359.515,29.267 
				359.27,29.267 359.27,26.276 358.904,26.276 358.904,25.239 356.269,25.239 356.269,25.09 355.965,25.09 355.965,25.239 
				354.999,25.239 354.999,24.848 354.694,24.848 354.694,25.239 353.657,25.239 353.657,26.276 353.352,26.276 353.352,29.267 
				353.108,29.267 353.108,34.026 352.986,34.026 352.986,41.409 351.583,41.409 351.583,40.434 349.934,40.434 349.934,41.409 
				349.69,41.409 349.69,43.589 349.506,43.589 349.506,30.854 348.47,30.854 348.47,30.061 346.883,30.061 346.883,30.365 
				344.687,30.365 344.687,29.938 342.978,29.938 342.978,30.854 342.063,30.854 342.063,38.664 340.963,38.664 340.963,39.136 
				337.5,39.136 337.5,42.708 336.711,42.708 336.711,43.24 336.019,43.24 336.019,46.102 335.778,46.102 335.778,35.003 
				334.168,35.003 334.168,34.05 332.475,34.05 332.475,34.454 330.59,34.454 330.59,35.003 327.907,35.003 327.907,38.288 
				327.084,38.288 327.084,38.771 327.295,38.771 327.295,39.396 326.238,39.396 326.238,37.198 326.057,37.198 326.057,31.87 
				325.693,31.87 325.693,27.995 325.649,27.995 325.649,25.972 325.161,25.972 325.161,24.935 324.795,24.935 324.795,24.446 
				324.247,24.446 324.247,23.836 320.646,23.836 320.646,24.446 320.461,24.446 320.461,24.935 320.097,24.935 320.097,25.972 
				319.486,25.972 319.486,27.995 319.396,27.995 319.396,31.87 319.034,31.87 319.034,37.198 318.73,37.198 318.73,40.372 
				316.008,40.372 316.008,40.982 315.642,40.982 315.642,39.457 314.788,39.457 314.788,40.982 314.483,40.982 314.483,39.396 
				313.506,39.396 313.506,41.531 312.652,41.531 312.652,39.457 311.92,39.457 311.92,17.6 311.554,17.6 311.554,16.572 
				310.374,16.572 310.374,15.765 309.888,15.765 309.888,16.572 309.786,16.572 309.786,15.957 309.526,15.957 309.526,15.765 
				309.042,15.765 309.042,15.957 308.679,15.957 308.679,15.765 308.196,15.765 308.196,15.957 307.833,15.957 307.833,15.765 
				307.348,15.765 307.348,15.957 306.733,15.957 306.733,16.572 305.391,16.572 305.391,17.6 305.147,17.6 305.147,22.803 
				301.954,22.803 301.954,24.93 302.127,24.93 302.127,34.575 301.851,34.575 301.851,35.917 301.668,35.917 301.668,35.369 
				299.778,35.369 299.778,35.917 299.167,35.917 299.167,44.025 298.741,44.025 298.741,25.18 298.829,25.18 298.829,24.596 
				298.741,24.596 298.741,24.568 298.161,24.568 298.161,24.388 297.326,24.388 297.326,24.568 291.479,24.568 291.479,24.596 
				291.365,24.596 291.365,25.18 291.479,25.18 291.479,28.474 289.281,28.474 289.281,30.305 288.446,30.305 288.446,30.182 
				287.32,30.182 287.32,30.426 285.865,30.426 285.865,42.689 285.611,42.689 285.611,38.27 285.361,38.27 285.361,38.187 
				285.486,38.187 285.486,38.021 285.278,38.021 285.278,37.729 284.277,37.729 284.277,37.062 284.402,37.062 284.402,36.645 
				284.277,36.645 284.277,35.811 283.819,35.811 283.819,32.309 283.553,32.309 283.553,26.879 278.774,26.879 277.103,27.348 
				277.103,38.892 276.783,38.892 276.783,29.136 276.407,29.136 276.407,20.354 275.919,20.354 275.919,16.486 275.553,16.486 
				275.553,10.975 275.248,10.975 275.248,8.754 275.004,8.754 275.004,8.015 275.123,8.015 275.123,6.451 274.943,6.451 
				274.943,5.958 272.319,5.958 272.319,6.451 271.33,6.451 271.33,8.015 271.465,8.015 271.465,8.754 271.159,8.754 
				271.159,10.975 270.916,10.975 270.916,16.486 270.488,16.486 270.488,20.354 270,20.354 270,24.325 269.394,24.325 
				269.394,22.637 269.269,22.637 269.269,21.052 269.144,21.052 269.144,22.637 268.936,22.637 268.936,22.86 265.79,22.86 
				265.79,24.325 264.753,24.325 264.753,24.679 263.557,24.679 263.557,32.684 259.966,32.684 259.966,30.605 260.063,30.605 
				260.063,29.934 259.574,29.934 259.574,29.862 259.18,29.862 259.18,29.39 258.929,29.39 258.929,29.934 258.537,29.934 
				258.537,30.605 258.656,30.605 258.656,31.892 258.179,31.892 258.179,32.016 258.304,32.016 258.304,32.684 257.512,32.684 
				257.512,32.934 257.613,32.934 257.613,37.008 256.717,37.008 256.717,37.281 256.881,37.281 256.881,38.521 256.595,38.521 
				256.595,38.729 256.386,38.729 256.386,38.848 256.088,38.848 256.088,46.32 255.722,46.32 255.722,24.386 252.916,24.386 
				252.916,23.897 251.329,23.897 251.329,24.386 251.127,24.386 250.77,25.235 250.77,41.841 250.535,41.841 250.535,18.017 
				247.301,16.045 244.518,16.045 244.518,15.879 243.726,15.879 243.726,15.785 242.224,15.785 242.224,15.879 241.158,15.879 
				241.158,16.045 239.491,16.045 239.491,35.832 238.942,35.832 238.942,13.966 237.417,13.966 237.417,13.502 236.105,13.502 
				236.105,13.334 235.887,13.334 235.887,13.502 235.286,13.502 235.286,13.732 233.355,13.732 233.355,13.966 232.596,13.966 
				232.596,42.087 232.31,42.087 232.31,41.568 231.437,41.568 231.437,36.773 231.408,36.773 231.408,36.515 231.354,36.515 
				231.354,35.532 231.271,35.532 231.271,36.515 231.135,36.515 231.135,36.773 230.917,36.773 230.917,36.624 230.015,36.624 
				230.015,36.773 229.667,36.773 229.667,36.468 228.752,36.468 228.752,35.992 227.958,35.992 227.958,35.797 227.612,35.797 
				227.612,35.149 227.502,35.149 227.502,35.797 227.288,35.797 227.288,35.992 226.799,35.992 226.799,36.167 226.433,36.167 
				226.433,36.576 225.614,36.576 225.614,36.679 225.399,36.679 225.399,36.773 225.152,36.773 225.152,39.945 225.057,39.945 
				225.057,39.93 222.04,39.93 222.04,40.147 222.255,40.147 222.255,40.803 222.112,40.803 222.112,45.445 221.916,45.445 
				221.916,42.018 221.412,42.018 221.412,41.896 218.654,41.896 218.654,42.018 217.767,42.018 217.767,47.194 217.588,47.194 
				217.588,45.119 217.552,45.119 217.552,34.252 216.209,34.252 216.209,33.702 215.485,33.603 215.485,33.455 215.349,33.455 
				215.349,31.025 215.294,31.025 215.294,33.455 215.076,33.455 215.076,33.546 214.578,33.479 213.708,33.702 213.708,34.252 
				212.792,34.252 212.792,42.204 212.134,42.204 212.134,43.718 211.911,43.718 211.911,43.18 211.648,43.18 211.648,41.563 
				211.781,41.563 211.781,40.991 211.517,40.991 209.23,40.815 208.306,40.991 208.042,40.991 208.042,41.563 208.13,41.563 
				208.13,43.427 207.722,43.427 207.722,42.823 205.326,42.823 205.326,44.204 204.14,44.204 204.14,44.549 203.212,44.549 
				203.212,45.815 203.088,45.815 203.088,49.57 201.283,49.57 201.283,51.536 390.063,51.536 390.063,49.57 			"/>
		</g>
		<rect x="-2.505" y="48.563" fill="#231F20" width="597.009" height="21.467"/>
	</g>
</g>
</svg>
