<?xml version="1.0" encoding="utf-8"?>
<!-- Generator: Adobe Illustrator 16.0.0, SVG Export Plug-In . SVG Version: 6.00 Build 0)  -->
<!DOCTYPE svg PUBLIC "-//W3C//DTD SVG 1.1//EN" "http://www.w3.org/Graphics/SVG/1.1/DTD/svg11.dtd">
<svg version="1.1" xmlns="http://www.w3.org/2000/svg" xmlns:xlink="http://www.w3.org/1999/xlink" x="0px" y="0px"
	 width="31.172px" height="33.692px" viewBox="0 0 31.172 33.692" enable-background="new 0 0 31.172 33.692" xml:space="preserve">
<g id="Layer_1">
</g>
<g id="Isolation_Mode">
	<path fill="#FFFFFF" d="M27.164,23.291v-0.902h0.809c0.493,0,0.871,0.123,1.133,0.364c0.262,0.243,0.394,0.596,0.394,1.059
		s-0.132,0.815-0.394,1.06c-0.262,0.243-0.64,0.365-1.133,0.365h-3.16c-0.492,0-0.867-0.122-1.131-0.365
		c-0.263-0.244-0.395-0.597-0.395-1.06s0.132-0.815,0.395-1.059c0.264-0.241,0.639-0.364,1.131-0.364h0.594v0.902h-0.652
		c-0.398,0-0.598,0.166-0.598,0.496s0.199,0.495,0.598,0.495h3.279c0.393,0,0.59-0.166,0.592-0.498c0-0.328-0.197-0.493-0.592-0.493
		H27.164z"/>
	<path fill="#FFFFFF" d="M23.355,21.851v-0.953h4.688c0.391,0,0.59-0.165,0.592-0.496c0-0.328-0.197-0.491-0.592-0.491h-4.688
		v-0.902h4.627c0.492,0,0.868,0.12,1.132,0.363c0.263,0.244,0.394,0.596,0.394,1.058s-0.131,0.814-0.394,1.058
		c-0.264,0.243-0.64,0.364-1.132,0.364H23.355z"/>
	<path fill="#FFFFFF" d="M23.355,16.913c0-0.49,0.113-0.849,0.344-1.075c0.229-0.226,0.58-0.339,1.055-0.339h0.215
		c0.625,0,1.033,0.206,1.226,0.619c0.187-0.475,0.62-0.712,1.3-0.712h0.496c0.469,0,0.827,0.122,1.074,0.368
		c0.244,0.245,0.367,0.605,0.367,1.08v1.5h-6.076V16.913z M24.223,16.938v0.464h1.607v-0.374c0-0.192-0.051-0.337-0.148-0.432
		c-0.1-0.096-0.262-0.144-0.491-0.144h-0.339C24.432,16.449,24.223,16.611,24.223,16.938 M26.699,16.974v0.428h1.863v-0.547
		c0-0.166-0.045-0.291-0.133-0.372c-0.088-0.082-0.244-0.123-0.463-0.123h-0.531c-0.276,0-0.469,0.047-0.576,0.143
		C26.752,16.596,26.699,16.753,26.699,16.974"/>
	<polygon fill="#FFFFFF" points="24.224,13.881 25.918,13.881 25.918,12.571 26.783,12.571 26.783,13.881 28.563,13.881 
		28.563,12.232 29.432,12.232 29.432,14.834 23.355,14.834 23.355,12.232 24.224,12.232 	"/>
	<path fill="#FFFFFF" d="M29.57,1.07l-8.773,1.6l1.602,8.776l8.773-1.603L29.57,1.07z M24.373,9.236h-1.378V3.72h1.378V9.236z
		 M29.247,5.066h-1.446v4.17h-1.379v-4.17h-1.445V3.721h4.271V5.066z"/>
	<polygon fill="#FFFFFF" points="23.412,26.142 23.412,27.631 6.061,27.631 6.061,10.28 21.295,10.28 20.316,4.219 0,4.219 
		0,33.692 29.475,33.692 29.475,26.142 	"/>
</g>
</svg>
