<?xml version="1.0" encoding="utf-8"?>
<!-- Generator: Adobe Illustrator 16.0.0, SVG Export Plug-In . SVG Version: 6.00 Build 0)  -->
<!DOCTYPE svg PUBLIC "-//W3C//DTD SVG 1.1//EN" "http://www.w3.org/Graphics/SVG/1.1/DTD/svg11.dtd">
<svg version="1.1" xmlns="http://www.w3.org/2000/svg" xmlns:xlink="http://www.w3.org/1999/xlink" x="0px" y="0px"
	 width="40.888px" height="40.895px" viewBox="0 0 40.888 40.895" enable-background="new 0 0 40.888 40.895" xml:space="preserve">
<g id="Layer_1">
</g>
<g id="Isolation_Mode">
	<g>
		<g>
			<circle fill="#C2151C" cx="20.444" cy="20.446" r="20.444"/>
		</g>
	</g>
	<path fill-rule="evenodd" clip-rule="evenodd" fill="#FFFFFF" d="M13.636,31.485c-0.345,0.148-0.646,0.395-0.9,0.708
		c-0.444,0.547-0.72,1.267-0.765,1.974c-0.008,0.099-0.012,0.189-0.008,0.263l-1.731,0.033c-0.004-0.144,0-0.28,0.008-0.407
		c0.065-1.053,0.485-2.134,1.151-2.957c0.707-0.868,1.698-1.464,2.875-1.497c0.111,0,0.214,0,0.304,0.008l-0.029,0.419
		c0.695-0.773,1.628-1.292,2.722-1.316c0.111,0,0.214,0,0.305,0.008l-0.008,0.115c0.646-0.572,1.443-0.938,2.356-0.954
		c0.037,0,0.078-0.004,0.115,0c0.453-0.613,1.041-1.11,1.731-1.398c-1.304-1.6-2.529-3.388-3.606-5.257
		c-1.797-3.111-3.199-6.452-3.915-9.52l-0.045-0.199l0.09-0.185c0.506-1.037,1.11-1.993,1.793-2.889
		c0.678-0.888,1.435-1.71,2.245-2.486l0.033-0.031c0.412-0.337,0.814-0.471,1.201-0.421c0.403,0.049,0.74,0.284,1.02,0.681
		l0.025,0.037l2.344,3.925c0.255,0.366,0.391,0.742,0.378,1.133c-0.008,0.409-0.168,0.796-0.514,1.162l-0.025,0.031l-0.025,0.019
		L20.927,14l4.873,8.438l2.229-0.829l0.045-0.017l0.024-0.004c0.489-0.115,0.905-0.062,1.258,0.134
		c0.345,0.189,0.604,0.493,0.798,0.896l2.225,3.997l0.021,0.033c0.202,0.444,0.235,0.852,0.078,1.226
		c-0.152,0.362-0.469,0.642-0.962,0.831l-0.045,0.017c-1.077,0.313-2.167,0.551-3.277,0.695c-1.114,0.144-2.246,0.193-3.393,0.111
		l-0.206-0.017l-0.152-0.14c-0.477-0.444-0.946-0.921-1.415-1.423c-0.165,0.008-0.325,0.033-0.473,0.082
		c-0.489,0.165-0.917,0.543-1.233,1.028c-0.333,0.502-0.543,1.115-0.58,1.711c-0.024,0.35,0.012,0.687,0.111,0.987L19.208,32.3
		c-0.173-0.522-0.234-1.082-0.197-1.637c0.016-0.275,0.062-0.555,0.123-0.831c-0.279,0.156-0.534,0.374-0.748,0.633
		c-0.444,0.551-0.72,1.271-0.765,1.974c-0.008,0.099-0.008,0.189-0.008,0.268l-1.731,0.033c0-0.144,0-0.284,0.008-0.407
		c0.033-0.501,0.144-1.011,0.325-1.493c-0.177,0.127-0.337,0.284-0.481,0.465c-0.444,0.543-0.719,1.267-0.765,1.97
		c-0.008,0.103-0.008,0.193-0.008,0.267l-1.731,0.033c-0.004-0.148,0-0.284,0.008-0.412C13.274,32.596,13.41,32.02,13.636,31.485
		L13.636,31.485z M25.081,28.385c1.012,0.058,1.999,0.013,2.969-0.115c1.032-0.131,2.056-0.354,3.068-0.649
		c0.177-0.066,0.271-0.132,0.296-0.193c0.024-0.054,0-0.144-0.058-0.28l-2.225-3.993l-0.024-0.037
		c-0.083-0.185-0.186-0.317-0.301-0.382c-0.099-0.054-0.238-0.066-0.419-0.025l-2.645,0.987l-0.456,0.165l-0.243-0.419l-5.362-9.288
		l-0.242-0.425l0.374-0.309l2.184-1.805c0.115-0.136,0.173-0.255,0.177-0.366c0.004-0.134-0.062-0.286-0.181-0.457l-0.025-0.035
		l-2.344-3.923c-0.078-0.117-0.148-0.183-0.206-0.189c-0.07-0.008-0.168,0.041-0.308,0.152c-0.765,0.73-1.472,1.507-2.11,2.338
		c-0.596,0.781-1.126,1.612-1.583,2.513c0.708,2.907,2.04,6.062,3.738,9.006C20.458,22.912,23.094,26.493,25.081,28.385z"/>
</g>
</svg>
