<?xml version="1.0" encoding="utf-8"?>
<!-- Generator: Adobe Illustrator 16.0.0, SVG Export Plug-In . SVG Version: 6.00 Build 0)  -->
<!DOCTYPE svg PUBLIC "-//W3C//DTD SVG 1.1//EN" "http://www.w3.org/Graphics/SVG/1.1/DTD/svg11.dtd">
<svg version="1.1" xmlns="http://www.w3.org/2000/svg" xmlns:xlink="http://www.w3.org/1999/xlink" x="0px" y="0px"
	 width="40.888px" height="40.895px" viewBox="0 0 40.888 40.895" enable-background="new 0 0 40.888 40.895" xml:space="preserve">
<g id="Layer_1">
</g>
<g id="Isolation_Mode">
	<g>
		<g>
			<circle fill="#C2151C" cx="20.444" cy="20.447" r="19.822"/>
		</g>
	</g>
	<path fill-rule="evenodd" clip-rule="evenodd" fill="#FFFFFF" d="M15.939,20.415h9.058v1.176h-9.058V20.415L15.939,20.415z
		 M31.383,18.127v-0.251L31.192,17.7L20.843,8.076l-0.399-0.37l-0.398,0.37L9.688,17.7l-0.184,0.176v0.251v12.845
		c0,0.61,0.247,1.164,0.654,1.567c0.398,0.402,0.957,0.649,1.563,0.649h17.542c0.582,0,1.116-0.239,1.498-0.622
		c0.383-0.383,0.622-0.913,0.622-1.499V18.127L31.383,18.127z M30.211,31.067V18.956l-9.233,7.941l-0.135-0.151l-0.128,0.163
		l-0.12-0.092l-0.151,0.136l-0.191-0.167l-2.392-2.089l-7.184-5.558v11.832c0,0.287,0.119,0.547,0.311,0.738
		c0.191,0.187,0.446,0.307,0.733,0.307h17.542c0.263,0,0.494-0.107,0.661-0.279C30.1,31.566,30.211,31.327,30.211,31.067
		L30.211,31.067z M29.876,18.079l-2.623,2.261v-3.936v-0.295h-0.295h-6.515h-6.521h-0.287v0.295v3.911l-2.751-2.125l9.56-8.886
		L29.876,18.079L29.876,18.079z M14.217,20.742l0.255,0.219l6.331,4.904l5.868-5.123v-4.043h-6.228h-6.227V20.742L14.217,20.742z
		 M11.418,30.493l4.696-5.509l0.893,0.765l-4.696,5.51L11.418,30.493L11.418,30.493z M28.824,31.259l-4.696-5.51l0.894-0.765
		l4.696,5.509L28.824,31.259L28.824,31.259z M15.939,18.215h9.058v1.172h-9.058V18.215z"/>
</g>
</svg>
