<?xml version="1.0" encoding="utf-8"?>
<!-- Generator: Adobe Illustrator 16.0.0, SVG Export Plug-In . SVG Version: 6.00 Build 0)  -->
<!DOCTYPE svg PUBLIC "-//W3C//DTD SVG 1.1//EN" "http://www.w3.org/Graphics/SVG/1.1/DTD/svg11.dtd">
<svg version="1.1" xmlns="http://www.w3.org/2000/svg" xmlns:xlink="http://www.w3.org/1999/xlink" x="0px" y="0px" width="5.114px"
	 height="8.542px" viewBox="0 0 5.114 8.542" enable-background="new 0 0 5.114 8.542" xml:space="preserve">
<g id="Layer_1">
	<path fill="#FFFFFF" d="M4.516,0H0.6C0.269,0,0,0.269,0,0.599v7.345c0,0.329,0.269,0.598,0.6,0.598h3.916
		c0.33,0,0.599-0.269,0.599-0.598V0.599C5.114,0.269,4.846,0,4.516,0 M2.073,0.334h0.968c0.048,0,0.086,0.039,0.086,0.086
		c0,0.048-0.038,0.086-0.086,0.086H2.073c-0.048,0-0.085-0.038-0.085-0.086C1.988,0.374,2.025,0.334,2.073,0.334 M2.558,8.183
		c-0.212,0-0.385-0.173-0.385-0.384c0-0.213,0.173-0.385,0.385-0.385c0.211,0,0.383,0.172,0.383,0.385
		C2.94,8.01,2.769,8.183,2.558,8.183 M4.589,7H0.525V0.802h4.063V7z"/>
</g>
<g id="Isolation_Mode">
</g>
</svg>
