<?xml version="1.0" encoding="utf-8"?>
<!-- Generator: Adobe Illustrator 16.0.0, SVG Export Plug-In . SVG Version: 6.00 Build 0)  -->
<!DOCTYPE svg PUBLIC "-//W3C//DTD SVG 1.1//EN" "http://www.w3.org/Graphics/SVG/1.1/DTD/svg11.dtd">
<svg version="1.1" xmlns="http://www.w3.org/2000/svg" xmlns:xlink="http://www.w3.org/1999/xlink" x="0px" y="0px"
	 width="176.694px" height="177.403px" viewBox="0 0 176.694 177.403" enable-background="new 0 0 176.694 177.403"
	 xml:space="preserve">
<g id="Layer_1">
</g>
<g id="Isolation_Mode">
	<path fill="#C2151C" d="M117.293,111.754c-2.543-1.645-6.027-2.447-10.337-2.518h-6.187l-3.312,23.328
		c0.631,0.094,1.426,0.164,2.392,0.205c0.965,0.051,2.228,0.07,3.794,0.07c1.76,0,3.564-0.182,5.414-0.557
		c1.856-0.367,3.579-0.996,5.176-1.875c1.596-0.885,2.94-2.09,4.032-3.625c1.084-1.529,1.782-3.451,2.108-5.773
		C120.976,116.555,119.952,113.473,117.293,111.754z M118.392,70.618c-1.077-0.742-2.324-1.251-3.742-1.529
		c-1.419-0.279-2.808-0.416-4.174-0.416c-0.542,0-1.203,0-1.976,0s-1.44,0.044-1.997,0.137l-2.815,19.824
		c0,0,11.329,0.267,13.256-1.66c2.414-1.618,3.898-4.426,4.448-8.417c0.268-1.953,0.104-3.572-0.49-4.871
		C120.308,72.381,119.469,71.364,118.392,70.618z M88.347,1.773c-48.01,0-86.929,38.919-86.929,86.929
		c0,48.009,38.919,86.929,86.929,86.929s86.929-38.92,86.929-86.929C175.276,40.692,136.357,1.773,88.347,1.773z M144.969,121.982
		c-0.802,6.123-2.569,11.184-5.316,15.172c-2.747,3.992-6.216,7.148-10.419,9.469s-9.06,3.947-14.569,4.871
		c-5.511,0.924-11.414,1.393-17.726,1.393c-5.013,0-9.491-0.186-13.427-0.557c-3.936-0.373-8.176-0.836-12.735-1.393l6.157-41.701
		H20.97l-1.662-4.178l49.843-80.177c3.453,0.464,6.795,1.273,10.01,2.432c3.224,1.162,6.216,2.993,9.016,5.499L54.582,88.633h25.396
		l5.496-37.223c3.52-0.558,7.352-1.021,11.48-1.393c4.121-0.371,8.904-0.557,14.332-0.557c5.161,0,9.921,0.441,14.28,1.325
		c4.358,0.88,8.079,2.361,11.146,4.452c3.066,2.087,5.354,4.871,6.839,8.351c1.492,3.479,1.887,7.864,1.195,13.154
		c-0.579,4.363-2.064,8.328-4.463,11.9c-2.391,3.576-5.183,6.334-8.376,8.284c1.99,0.836,3.884,1.928,5.673,3.271
		c1.79,1.348,3.313,3.016,4.56,5.012c1.256,1.994,2.154,4.387,2.711,7.166C145.4,115.162,145.438,118.367,144.969,121.982z"/>
</g>
</svg>
