<?xml version="1.0" encoding="utf-8"?>
<!-- Generator: Adobe Illustrator 16.0.0, SVG Export Plug-In . SVG Version: 6.00 Build 0)  -->
<!DOCTYPE svg PUBLIC "-//W3C//DTD SVG 1.1//EN" "http://www.w3.org/Graphics/SVG/1.1/DTD/svg11.dtd">
<svg version="1.1" xmlns="http://www.w3.org/2000/svg" xmlns:xlink="http://www.w3.org/1999/xlink" x="0px" y="0px"
	 width="44.445px" height="47.5px" viewBox="0 0 44.445 47.5" enable-background="new 0 0 44.445 47.5" xml:space="preserve">
<g id="Layer_1">
</g>
<g id="Isolation_Mode">
	<path fill="#FFFFFF" d="M38.73,31.684v-1.288h1.152c0.702,0,1.241,0.176,1.614,0.518c0.375,0.35,0.563,0.853,0.563,1.513
		c0,0.659-0.188,1.163-0.563,1.51c-0.373,0.349-0.912,0.521-1.614,0.521h-4.506c-0.702,0-1.238-0.172-1.611-0.521
		c-0.375-0.347-0.563-0.851-0.563-1.51c0-0.66,0.188-1.163,0.563-1.513c0.373-0.342,0.909-0.518,1.611-0.518h0.846v1.288h-0.93
		c-0.566,0-0.854,0.233-0.854,0.706c0,0.471,0.287,0.708,0.854,0.708h4.678c0.557,0,0.838-0.239,0.842-0.712
		c0-0.469-0.28-0.702-0.842-0.702H38.73z"/>
	<path fill="#FFFFFF" d="M33.299,29.628v-1.357h6.685c0.558,0,0.84-0.236,0.844-0.707c0-0.468-0.282-0.703-0.844-0.703h-6.685
		v-1.284h6.6c0.699,0,1.236,0.172,1.611,0.52c0.373,0.345,0.563,0.849,0.563,1.507c0,0.657-0.189,1.162-0.563,1.506
		c-0.375,0.348-0.912,0.52-1.611,0.52H33.299z"/>
	<path fill="#FFFFFF" d="M33.299,22.591c0-0.702,0.164-1.212,0.491-1.534c0.325-0.323,0.827-0.483,1.503-0.483h0.309
		c0.889,0,1.473,0.293,1.745,0.882c0.267-0.677,0.886-1.015,1.854-1.015h0.707c0.668,0,1.18,0.176,1.531,0.524
		c0.349,0.351,0.523,0.864,0.523,1.541v2.138h-8.664V22.591z M34.538,22.624v0.662h2.29v-0.535c0-0.273-0.072-0.48-0.213-0.615
		c-0.141-0.136-0.373-0.203-0.699-0.203h-0.484C34.835,21.929,34.538,22.159,34.538,22.624 M38.066,22.676v0.61h2.658v-0.78
		c0-0.237-0.063-0.414-0.189-0.531c-0.129-0.116-0.348-0.176-0.662-0.176h-0.756c-0.396,0-0.668,0.065-0.821,0.202
		C38.143,22.137,38.066,22.36,38.066,22.676"/>
	<polygon fill="#FFFFFF" points="34.538,18.266 36.954,18.266 36.954,16.397 38.188,16.397 38.188,18.266 40.725,18.266 
		40.725,15.913 41.962,15.913 41.962,19.624 33.299,19.624 33.299,15.913 34.538,15.913 	"/>
	<path fill="#8E1923" d="M42.16,0L29.651,2.282l2.282,12.512l12.512-2.283L42.16,0z M34.751,11.644h-1.965V3.778h1.965V11.644z
		 M41.699,5.698h-2.063v5.945H37.67V5.698h-2.061V3.779h6.09V5.698z"/>
	<polygon fill="#718390" points="33.381,35.748 33.381,37.871 8.642,37.871 8.642,13.132 30.36,13.132 28.967,4.488 0,4.488 
		0,46.513 42.024,46.513 42.024,35.748 	"/>
</g>
</svg>
