<?xml version="1.0" encoding="utf-8"?>
<!-- Generator: Adobe Illustrator 16.0.0, SVG Export Plug-In . SVG Version: 6.00 Build 0)  -->
<!DOCTYPE svg PUBLIC "-//W3C//DTD SVG 1.1//EN" "http://www.w3.org/Graphics/SVG/1.1/DTD/svg11.dtd">
<svg version="1.1" xmlns="http://www.w3.org/2000/svg" xmlns:xlink="http://www.w3.org/1999/xlink" x="0px" y="0px" width="200px"
	 height="200px" viewBox="0 0 200 200" enable-background="new 0 0 200 200" xml:space="preserve">
<g id="Layer_1">
</g>
<g id="Isolation_Mode">
	<path fill-rule="evenodd" clip-rule="evenodd" fill="#C465A7" d="M168.009,98.53c-0.246-2.162-2.183-3.718-4.344-3.462
		c-2.162,0.256-3.736,2.191-3.471,4.372l6.524,55.746c0.057,0.483,0.076,0.987,0.076,1.488c0,3.596-1.556,6.896-3.963,9.38
		c-2.486,2.57-5.824,4.314-9.371,4.724c-0.493,0.057-1.043,0.076-1.63,0.076H48.153c-0.57,0-1.102-0.02-1.614-0.076
		c-3.545-0.409-6.885-2.135-9.369-4.705c-2.428-2.522-3.984-5.803-3.984-9.398h0.02c0-0.501,0.038-1.005,0.076-1.488l6.525-55.746
		c0.245-2.181-1.309-4.116-3.453-4.372c-2.181-0.256-4.116,1.3-4.381,3.462l-6.526,55.755c-0.094,0.835-0.133,1.632-0.133,2.39h0.02
		c0,5.777,2.409,10.954,6.164,14.861c3.717,3.823,8.782,6.431,14.131,7.066c0.872,0.104,1.706,0.161,2.523,0.161h103.678
		c0.814,0,1.648-0.058,2.541-0.161c5.347-0.636,10.412-3.243,14.129-7.066c3.776-3.926,6.184-9.113,6.184-14.861
		c0-0.758-0.037-1.555-0.151-2.39L168.009,98.53z M196.935,63.354v0.094v0.114h0.019v0.332v0.057v12.879
		c0,3.044-1.232,5.823-3.262,7.843l-2.787-2.779l2.787,2.798c-0.095,0.085-0.172,0.18-0.265,0.256
		c-2.011,1.859-4.687,3.006-7.607,3.006h-33.667c-3.072,0-5.842-1.26-7.853-3.262h-0.019c-2.087-2.152-3.263-4.837-3.263-7.862
		V64.654c-0.077-0.313-0.115-0.627-0.115-0.949v-0.607c0-0.796-0.321-1.518-0.853-2.039c-0.531-0.522-1.252-0.854-2.049-0.854
		H61.884c-0.796,0-1.535,0.313-2.047,0.835v0.019l-0.133,0.114c-0.456,0.522-0.722,1.186-0.722,1.925v0.607V77.04
		c0,0.199,0,0.369-0.038,0.549c-0.188,2.817-1.441,5.359-3.338,7.208c-2.029,1.953-4.742,3.157-7.758,3.157H14.162
		c-3.035,0-5.823-1.26-7.833-3.262h-0.02c-2.105-2.152-3.262-4.837-3.262-7.862c0-1.109,0-13.172,0-13.172
		c0-0.02,0.019-0.304,0.019-0.304l0.02-0.313C3.596,50.883,14.959,40.214,33.054,32.76c17.261-7.113,40.914-11.523,66.937-11.523
		c26.043,0,49.695,4.41,66.957,11.523c18.245,7.52,29.647,18.313,29.968,30.595H196.935z M189.063,63.952v-0.038
		c0-0.094,0-0.189,0-0.293l3.925-0.095l-3.925,0.076c-0.19-8.897-9.75-17.243-25.114-23.558
		c-16.33-6.744-38.922-10.897-63.958-10.897c-25.037,0-47.589,4.154-63.959,10.897c-15.173,6.25-24.714,14.51-25.094,23.282
		c0,0.047,0.019,0.379-0.019,0.379v0.114v13.011c0,0.873,0.38,1.688,0.929,2.277l0.019,0.019c0.588,0.598,1.403,0.949,2.295,0.949
		h33.686c0.892,0,1.688-0.352,2.275-0.911c0.533-0.531,0.892-1.224,0.969-2V77.04V63.705v-0.607c0-2.835,1.1-5.425,2.921-7.34
		c0.075-0.095,0.17-0.199,0.247-0.293l2.789,2.797l-2.77-2.797c1.954-1.945,4.647-3.168,7.605-3.168h76.118
		c2.958,0,5.671,1.223,7.625,3.168c1.859,1.886,3.073,4.447,3.168,7.265c0.075,0.331,0.113,0.683,0.113,1.033v0.189v12.879
		c0,0.873,0.342,1.688,0.931,2.277l0.019,0.019h-0.019c0.606,0.598,1.422,0.949,2.313,0.949h33.667c0.815,0,1.594-0.313,2.163-0.817
		l0.133-0.132c0.588-0.588,0.948-1.403,0.948-2.295V63.952z"/>
	<path fill-rule="evenodd" clip-rule="evenodd" fill="#C465A7" d="M101.089,80.075c20.825,0,37.706,16.88,37.706,37.697
		c0,20.826-16.881,37.698-37.706,37.698c-20.808,0-37.69-16.872-37.69-37.698C63.399,96.955,80.281,80.075,101.089,80.075"/>
	<path fill="#FFFFFF" d="M85.287,127.938v4.668H70.322v-3.909c4.439-7.246,7.076-11.73,7.91-13.456
		c0.833-1.736,1.252-3.074,1.252-4.041c0-0.74-0.133-1.309-0.379-1.649c-0.247-0.37-0.646-0.569-1.157-0.569
		c-0.513,0-0.911,0.218-1.139,0.626c-0.266,0.388-0.378,1.204-0.378,2.409v2.579h-6.109v-0.986c0-1.536,0.077-2.741,0.228-3.614
		c0.152-0.881,0.55-1.754,1.176-2.607c0.608-0.854,1.404-1.488,2.409-1.934c0.987-0.438,2.162-0.646,3.547-0.646
		c2.693,0,4.761,0.664,6.145,2.002c1.386,1.338,2.068,3.025,2.068,5.083c0,1.574-0.379,3.225-1.158,4.979
		c-0.778,1.727-3.072,5.416-6.904,11.067H85.287z"/>
	<path fill="#FFFFFF" d="M101.145,105.312v17.829h1.917v4.638h-1.917v4.818h-6.809v-4.818h-8.119v-4.638l5.899-17.829H101.145z
		 M94.336,123.141v-11.618l-3.016,11.618H94.336z"/>
	<polygon fill="#FFFFFF" points="116.699,104.799 108.619,133.118 103.479,133.118 111.597,104.799 	"/>
	<polygon fill="#FFFFFF" points="130.127,105.312 130.127,111.257 125.783,132.597 119.013,132.597 123.85,110.205 117.135,110.205 
		117.135,105.312 	"/>
</g>
</svg>
